<svg width="176" height="208" viewBox="0 0 176 208" fill="none" xmlns="http://www.w3.org/2000/svg">
<circle cx="111" cy="105" r="63.5" stroke="black" stroke-width="3"/>
<path d="M7.40875 103.88L4.19449 105.258L7.40875 106.637L33.6588 117.895L35.75 118.792V116.517V94V91.7245L33.6588 92.6214L7.40875 103.88Z" stroke="black" stroke-width="3"/>
<path d="M77.2023 200.584L77.5094 204.068L79.8219 201.444L98.707 180.016L100.212 178.309L98.0496 177.599L76.6565 170.575L74.4946 169.865L74.6944 172.132L77.2023 200.584Z" stroke="black" stroke-width="3"/>
<path d="M79.7403 6.68929L77.3817 4.10682L77.1364 7.59562L75.1326 36.0877L74.973 38.3575L77.122 37.6095L98.3873 30.2079L100.536 29.4599L99.0019 27.7797L79.7403 6.68929Z" stroke="black" stroke-width="3"/>
<path d="M26.0816 164.244L24.3095 167.259L27.7155 166.465L55.5313 159.977L57.7473 159.46L56.3988 157.627L43.0549 139.49L41.7064 137.657L40.5535 139.619L26.0816 164.244Z" stroke="black" stroke-width="3"/>
<path d="M30.9637 42.9842L27.6466 41.8757L29.1298 45.043L41.2431 70.9096L42.2082 72.9703L43.7217 71.2712L58.6982 54.4574L60.2117 52.7582L58.0535 52.037L30.9637 42.9842Z" stroke="black" stroke-width="3"/>
<line x1="110.5" y1="43" x2="110.5" y2="167" stroke="black" stroke-width="3"/>
<g style="mix-blend-mode:multiply">
<path d="M141.084 50.1724C143.131 52.2085 144.332 54.6248 144.669 56.8346C145.007 59.0449 144.48 60.9394 143.239 62.1872C141.998 63.435 140.107 63.9733 137.895 63.6478C135.683 63.3224 133.26 62.1358 131.212 60.0998C129.165 58.0637 127.964 55.6474 127.627 53.4376C127.289 51.2273 127.816 49.3328 129.057 48.085C130.298 46.8372 132.189 46.2989 134.402 46.6244C136.613 46.9498 139.036 48.1364 141.084 50.1724Z" stroke="black" stroke-opacity="0.6" stroke-width="3"/>
</g>
<g style="mix-blend-mode:multiply">
<path d="M163.742 135.66C157.292 141.62 148.46 141.815 143.944 136.927C139.427 132.039 140.318 123.25 146.768 117.29C153.218 111.33 162.05 111.135 166.567 116.023C171.083 120.911 170.192 129.7 163.742 135.66Z" stroke="black" stroke-opacity="0.6" stroke-width="3"/>
</g>
<g style="mix-blend-mode:multiply">
<path d="M137.855 117.239C135.733 121.98 128.976 124.112 122.396 121.165C115.815 118.219 112.905 111.759 115.028 107.018C117.151 102.278 123.907 100.146 130.488 103.092C137.068 106.039 139.978 112.498 137.855 117.239Z" stroke="black" stroke-opacity="0.6" stroke-width="3"/>
</g>
<g style="mix-blend-mode:multiply">
<path d="M157.533 80.5892C160.593 81.4628 162.675 85.5996 161.31 90.3832C159.944 95.1667 155.992 97.5807 152.932 96.7071C149.871 95.8334 147.789 91.6967 149.155 86.9131C150.521 82.1295 154.473 79.7155 157.533 80.5892Z" stroke="black" stroke-opacity="0.6" stroke-width="3"/>
</g>
<g style="mix-blend-mode:multiply">
<path d="M135.274 72.4891C137.574 74.6887 137.487 79.3191 134.049 82.9143C130.61 86.5096 125.988 86.8025 123.688 84.6029C121.388 82.4033 121.475 77.7729 124.913 74.1777C128.352 70.5825 132.974 70.2895 135.274 72.4891Z" stroke="black" stroke-opacity="0.6" stroke-width="3"/>
</g>
<g style="mix-blend-mode:multiply">
<path d="M124.63 140.209C127.105 138.722 129.742 138.149 131.967 138.362C134.193 138.575 135.901 139.55 136.807 141.058C137.713 142.567 137.772 144.533 136.916 146.598C136.059 148.663 134.316 150.722 131.841 152.209C129.366 153.696 126.729 154.269 124.504 154.056C122.278 153.843 120.57 152.868 119.664 151.359C118.757 149.851 118.698 147.885 119.555 145.82C120.412 143.755 122.155 141.696 124.63 140.209Z" stroke="black" stroke-opacity="0.6" stroke-width="3"/>
</g>
</svg>

