<svg width="183" height="210" viewBox="0 0 183 210" fill="none" xmlns="http://www.w3.org/2000/svg">
<circle cx="116" cy="110" r="64.5" stroke="black" stroke-width="4"/>
<path d="M12.0146 107.961L6.65749 110.258L12.0146 112.556L38.2646 123.814L41.75 125.309V121.517V99V95.2075L38.2646 96.7024L12.0146 107.961Z" fill="#F7F4B3" fill-opacity="0.8" stroke="black" stroke-width="4"/>
<path d="M81.2062 205.672L81.718 211.478L85.5721 207.105L104.457 185.677L106.965 182.832L103.362 181.649L81.9685 174.625L78.3652 173.442L78.6982 177.22L81.2062 205.672Z" fill="#F7F4B3" fill-opacity="0.95" stroke="black" stroke-width="4"/>
<path d="M85.4787 11.0149L81.5478 6.71081L81.1388 12.5255L79.1351 41.0175L78.869 44.8006L82.4507 43.554L103.716 36.1523L107.298 34.9056L104.74 32.1053L85.4787 11.0149Z" fill="#F7F4B3" fill-opacity="0.8" stroke="black" stroke-width="4"/>
<path d="M30.2194 168.737L27.266 173.763L32.9426 172.439L60.7584 165.951L64.4518 165.089L62.2043 162.034L48.8604 143.898L46.6129 140.843L44.6913 144.113L30.2194 168.737Z" fill="#F7F4B3" fill-opacity="0.9" stroke="black" stroke-width="4"/>
<path d="M36.2806 47.0358L30.7521 45.1883L33.2242 50.4671L45.3375 76.3337L46.9459 79.7682L49.4684 76.9363L64.4449 60.1225L66.9674 57.2906L63.3705 56.0886L36.2806 47.0358Z" fill="#F7F4B3" fill-opacity="0.8" stroke="black" stroke-width="4"/>
<line x1="116.5" y1="48" x2="116.5" y2="172" stroke="black" stroke-width="4"/>
<g style="mix-blend-mode:multiply">
<ellipse cx="141.148" cy="60.1361" rx="8.5" ry="11.5" transform="rotate(-45.1614 141.148 60.1361)" fill="#C7C7C7" fill-opacity="0.8"/>
<path d="M145.379 55.8815C147.29 57.7821 148.379 60.0081 148.681 61.9857C148.983 63.9642 148.495 65.512 147.53 66.4821C146.565 67.4522 145.02 67.9498 143.04 67.6585C141.061 67.3673 138.829 66.2913 136.917 64.3907C135.006 62.4901 133.917 60.2641 133.615 58.2865C133.313 56.3081 133.802 54.7602 134.766 53.7901C135.731 52.82 137.276 52.3224 139.256 52.6137C141.235 52.9049 143.467 53.9809 145.379 55.8815Z" stroke="black" stroke-opacity="0.6" stroke-width="3"/>
</g>
<g style="mix-blend-mode:multiply">
<ellipse cx="160.255" cy="131.475" rx="14.0056" ry="16.9011" transform="rotate(47.2612 160.255 131.475)" fill="#C7C7C7" fill-opacity="0.8"/>
<path d="M168.064 139.925C161.884 145.635 153.706 145.607 149.678 141.248C145.65 136.889 146.267 128.735 152.447 123.025C158.627 117.315 166.804 117.342 170.832 121.702C174.86 126.061 174.243 134.215 168.064 139.925Z" stroke="black" stroke-opacity="0.6" stroke-width="3"/>
</g>
<g style="mix-blend-mode:multiply">
<ellipse cx="131.442" cy="117.129" rx="14.0056" ry="11.4008" transform="rotate(24.1202 131.442 117.129)" fill="#C7C7C7" fill-opacity="0.8"/>
<path d="M141.943 121.831C140.12 125.901 134.065 128.056 127.804 125.253C121.544 122.449 119.118 116.497 120.941 112.427C122.763 108.357 128.818 106.202 135.079 109.005C141.34 111.808 143.765 117.76 141.943 121.831Z" stroke="black" stroke-opacity="0.6" stroke-width="3"/>
</g>
<g style="mix-blend-mode:multiply">
<ellipse cx="160.232" cy="93.6481" rx="9.88093" ry="7.82026" transform="rotate(-74.0666 160.232 93.6481)" fill="#C7C7C7" fill-opacity="0.8"/>
<path d="M162.259 86.5508C164.59 87.2164 166.626 90.6343 165.348 95.1087C164.071 99.583 160.538 101.411 158.206 100.746C155.874 100.08 153.839 96.662 155.116 92.1876C156.394 87.7133 159.927 85.8851 162.259 86.5508Z" stroke="black" stroke-opacity="0.6" stroke-width="3"/>
</g>
<g style="mix-blend-mode:multiply">
<ellipse cx="134.481" cy="83.546" rx="9.88093" ry="7.82026" transform="rotate(-46.2778 134.481 83.546)" fill="#C7C7C7" fill-opacity="0.8"/>
<path d="M139.582 78.2118C141.335 79.8878 141.542 83.8604 138.326 87.2232C135.11 90.586 131.132 90.5562 129.38 88.8802C127.627 87.2043 127.42 83.2316 130.636 79.8689C133.852 76.5061 137.83 76.5359 139.582 78.2118Z" stroke="black" stroke-opacity="0.6" stroke-width="3"/>
</g>
<g style="mix-blend-mode:multiply">
<ellipse cx="133.235" cy="151.209" rx="8.5" ry="11.5" transform="rotate(-121.001 133.235 151.209)" fill="#C7C7C7" fill-opacity="0.8"/>
<path d="M130.145 146.066C132.455 144.678 134.88 144.167 136.872 144.357C138.864 144.548 140.245 145.401 140.95 146.573C141.654 147.746 141.759 149.366 140.992 151.215C140.225 153.063 138.636 154.964 136.326 156.352C134.015 157.74 131.59 158.251 129.599 158.06C127.607 157.87 126.225 157.017 125.521 155.844C124.816 154.672 124.712 153.052 125.479 151.203C126.245 149.355 127.835 147.454 130.145 146.066Z" stroke="black" stroke-opacity="0.6" stroke-width="3"/>
</g>
</svg>

